<?xml version="1.0" encoding="UTF-8"?>
<svg xmlns="http://www.w3.org/2000/svg" xmlns:xlink="http://www.w3.org/1999/xlink" width="18pt" height="18pt" viewBox="0 0 18 18" version="1.1">
<g id="surface1">
<path style=" stroke:none;fill-rule:nonzero;fill:#DA4A6B;fill-opacity:1;" d="M 12.371094 2.695313 C 10.921875 2.695313 9.679688 3.726563 8.996094 4.4375 C 8.320313 3.726563 7.078125 2.695313 5.628906 2.695313 C 3.128906 2.695313 1.382813 4.433594 1.382813 6.929688 C 1.382813 9.679688 3.554688 11.457031 5.648438 13.171875 C 6.640625 13.984375 7.664063 14.824219 8.449219 15.753906 C 8.582031 15.910156 8.777344 16 8.976563 16 L 9.019531 16 C 9.222656 16 9.417969 15.910156 9.550781 15.753906 C 10.335938 14.824219 11.359375 13.984375 12.351563 13.171875 C 14.445313 11.457031 16.617188 9.679688 16.617188 6.929688 C 16.617188 4.433594 14.871094 2.695313 12.371094 2.695313 Z "/>
</g>
</svg>
