<?xml version="1.0" encoding="UTF-8"?>
<svg xmlns="http://www.w3.org/2000/svg" xmlns:xlink="http://www.w3.org/1999/xlink" width="18pt" height="18pt" viewBox="0 0 18 18" version="1.1">
<g id="surface1">
<path style=" stroke:none;fill-rule:nonzero;fill:#d0d0d0;fill-opacity:1;" d="M 5.625 2.683594 C 4.429688 2.683594 3.34375 3.097656 2.574219 3.851563 C 1.804688 4.605469 1.382813 5.683594 1.382813 6.921875 C 1.382813 9.019531 2.667969 10.582031 4.132813 11.898438 C 5.59375 13.214844 7.300781 14.382813 8.460938 15.75 C 8.585938 15.910156 8.777344 16.003906 8.976563 16.007813 L 9.023438 16.007813 C 9.222656 16.003906 9.414063 15.910156 9.539063 15.75 C 10.699219 14.382813 12.40625 13.214844 13.867188 11.898438 C 15.332031 10.582031 16.617188 9.019531 16.617188 6.921875 C 16.617188 5.683594 16.171875 4.605469 15.402344 3.851563 C 14.636719 3.097656 13.570313 2.683594 12.375 2.683594 C 11.191406 2.683594 10.21875 3.328125 9.539063 3.914063 C 9.207031 4.203125 9.191406 4.28125 9 4.5 C 8.8125 4.28125 8.792969 4.203125 8.460938 3.914063 C 7.78125 3.328125 6.808594 2.683594 5.625 2.683594 Z M 5.625 4.066406 C 6.277344 4.066406 7.003906 4.503906 7.550781 4.976563 C 8.097656 5.449219 8.4375 5.90625 8.4375 5.90625 C 8.566406 6.085938 8.777344 6.195313 9 6.195313 C 9.222656 6.195313 9.433594 6.085938 9.5625 5.90625 C 9.5625 5.90625 9.902344 5.449219 10.449219 4.976563 C 11 4.503906 11.71875 4.066406 12.375 4.066406 C 13.265625 4.066406 13.964844 4.371094 14.453125 4.847656 C 14.9375 5.320313 15.230469 5.996094 15.230469 6.921875 C 15.230469 8.457031 14.304688 9.628906 12.9375 10.859375 C 11.730469 11.949219 10.253906 13.066406 9 14.386719 C 7.746094 13.0625 6.273438 11.949219 5.0625 10.859375 C 3.695313 9.628906 2.769531 8.457031 2.769531 6.921875 C 2.769531 5.996094 3.0625 5.320313 3.546875 4.847656 C 4.035156 4.371094 4.734375 4.066406 5.625 4.066406 Z "/>
</g>
</svg>
