<?xml version="1.0" encoding="UTF-8"?>
<svg xmlns="http://www.w3.org/2000/svg" xmlns:xlink="http://www.w3.org/1999/xlink" width="16pt" height="16pt" viewBox="0 0 24 24" version="1.1">
<g id="surface1">
<path style=" stroke:none;fill-rule:nonzero;fill:#969BA8;fill-opacity:1;" d="M 12 2.398438 C 6.890625 2.398438 2.703125 6.421875 2.425781 11.46875 C 2.402344 11.8125 2.566406 12.140625 2.855469 12.332031 C 3.144531 12.523438 3.515625 12.542969 3.820313 12.386719 C 4.128906 12.230469 4.328125 11.917969 4.34375 11.574219 C 4.566406 7.523438 7.890625 4.320313 12 4.320313 C 14.203125 4.320313 16.175781 5.246094 17.574219 6.71875 L 16.320313 6.71875 C 15.972656 6.714844 15.652344 6.894531 15.476563 7.195313 C 15.300781 7.496094 15.300781 7.867188 15.476563 8.164063 C 15.652344 8.464844 15.972656 8.644531 16.320313 8.640625 L 19.324219 8.640625 C 19.433594 8.660156 19.546875 8.660156 19.65625 8.640625 L 21.121094 8.640625 L 21.121094 3.839844 C 21.125 3.582031 21.023438 3.332031 20.839844 3.148438 C 20.65625 2.964844 20.40625 2.863281 20.144531 2.867188 C 19.617188 2.875 19.191406 3.308594 19.199219 3.839844 L 19.199219 5.652344 C 17.4375 3.65625 14.863281 2.398438 12 2.398438 Z M 20.65625 11.507813 C 20.125 11.484375 19.679688 11.898438 19.65625 12.425781 C 19.433594 16.476563 16.109375 19.679688 12 19.679688 C 9.796875 19.679688 7.828125 18.753906 6.425781 17.28125 L 7.679688 17.28125 C 8.027344 17.285156 8.347656 17.105469 8.523438 16.804688 C 8.699219 16.503906 8.699219 16.132813 8.523438 15.835938 C 8.347656 15.535156 8.027344 15.355469 7.679688 15.359375 L 4.664063 15.359375 C 4.5625 15.34375 4.460938 15.34375 4.359375 15.359375 L 2.878906 15.359375 L 2.878906 20.160156 C 2.875 20.507813 3.054688 20.828125 3.355469 21 C 3.65625 21.179688 4.027344 21.179688 4.324219 21 C 4.625 20.828125 4.804688 20.507813 4.800781 20.160156 L 4.800781 18.347656 C 6.5625 20.34375 9.136719 21.601563 12 21.601563 C 17.109375 21.601563 21.296875 17.578125 21.574219 12.53125 C 21.59375 12.273438 21.503906 12.019531 21.332031 11.824219 C 21.15625 11.632813 20.914063 11.519531 20.65625 11.507813 Z "/>
</g>
</svg>
