<?xml version="1.0" encoding="UTF-8"?>
<svg xmlns="http://www.w3.org/2000/svg" xmlns:xlink="http://www.w3.org/1999/xlink" width="24pt" height="24pt" viewBox="0 0 24 24" version="1.1">
<g id="surface1">
<path style=" stroke:none;fill-rule:nonzero;fill:#969BA8;fill-opacity:1;" d="M 12 2.398438 C 6.703125 2.398438 2.398438 6.703125 2.398438 12 C 2.398438 12.171875 2.488281 12.332031 2.636719 12.421875 C 2.789063 12.507813 2.972656 12.507813 3.121094 12.421875 C 3.273438 12.332031 3.363281 12.171875 3.359375 12 C 3.359375 7.222656 7.222656 3.359375 12 3.359375 C 15 3.359375 17.628906 4.886719 19.179688 7.199219 L 15.839844 7.199219 C 15.667969 7.199219 15.507813 7.289063 15.417969 7.4375 C 15.332031 7.589844 15.332031 7.773438 15.417969 7.921875 C 15.507813 8.070313 15.667969 8.160156 15.839844 8.160156 L 20.640625 8.160156 L 20.640625 3.359375 C 20.640625 3.230469 20.589844 3.105469 20.5 3.011719 C 20.40625 2.921875 20.28125 2.871094 20.152344 2.871094 C 19.886719 2.878906 19.675781 3.09375 19.679688 3.359375 L 19.679688 6.246094 C 17.925781 3.910156 15.140625 2.398438 12 2.398438 Z M 21.113281 11.511719 C 20.847656 11.519531 20.636719 11.734375 20.640625 12 C 20.640625 16.777344 16.777344 20.640625 12 20.640625 C 9 20.640625 6.371094 19.113281 4.820313 16.800781 L 8.160156 16.800781 C 8.332031 16.804688 8.492188 16.710938 8.582031 16.5625 C 8.667969 16.414063 8.667969 16.226563 8.582031 16.078125 C 8.492188 15.929688 8.332031 15.839844 8.160156 15.839844 L 4.054688 15.839844 C 3.992188 15.828125 3.929688 15.828125 3.867188 15.839844 L 3.359375 15.839844 L 3.359375 20.640625 C 3.359375 20.8125 3.449219 20.972656 3.597656 21.0625 C 3.75 21.148438 3.933594 21.148438 4.082031 21.0625 C 4.230469 20.972656 4.320313 20.8125 4.320313 20.640625 L 4.320313 17.753906 C 6.070313 20.085938 8.859375 21.601563 12 21.601563 C 17.296875 21.601563 21.601563 17.296875 21.601563 12 C 21.601563 11.871094 21.550781 11.746094 21.460938 11.652344 C 21.367188 11.5625 21.242188 11.511719 21.113281 11.511719 Z "/>
</g>
</svg>
