<?xml version="1.0" encoding="UTF-8"?>
<svg xmlns="http://www.w3.org/2000/svg" xmlns:xlink="http://www.w3.org/1999/xlink" width="22pt" height="22pt" viewBox="0 0 50 50" version="1.1">
<g id="surface1">
<path style=" stroke:none;fill-rule:nonzero;fill:#1B7BDB;fill-opacity:1;" d="M 30.171875 2.039063 C 29.773438 2.007813 29.367188 2.082031 28.988281 2.261719 L 25 4.15625 L 21.015625 2.261719 C 20.003906 1.777344 18.78125 2.082031 18.105469 2.976563 L 15.453125 6.507813 L 11.042969 6.683594 C 9.925781 6.730469 8.984375 7.566406 8.804688 8.671875 L 8.101563 13.03125 L 4.273438 15.234375 C 3.304688 15.796875 2.859375 16.972656 3.210938 18.035156 L 4.617188 22.222656 L 2.25 25.949219 C 1.648438 26.898438 1.800781 28.148438 2.613281 28.921875 L 5.796875 31.980469 L 5.4375 36.378906 C 5.347656 37.496094 6.0625 38.53125 7.140625 38.84375 L 11.382813 40.066406 L 13.109375 44.132813 C 13.550781 45.171875 14.671875 45.753906 15.761719 45.523438 L 20.089844 44.636719 L 23.5 47.433594 C 23.921875 47.777344 24.457031 47.96875 25 47.96875 C 25.546875 47.96875 26.078125 47.777344 26.5 47.433594 L 29.914063 44.640625 L 34.234375 45.523438 C 35.328125 45.757813 36.453125 45.171875 36.894531 44.128906 L 38.621094 40.066406 L 42.863281 38.84375 C 43.9375 38.53125 44.652344 37.496094 44.5625 36.378906 L 44.203125 31.980469 L 47.390625 28.925781 C 48.199219 28.152344 48.355469 26.898438 47.753906 25.949219 L 45.390625 22.21875 L 46.796875 18.03125 C 47.144531 16.96875 46.695313 15.792969 45.730469 15.234375 L 41.90625 13.03125 L 41.199219 8.664063 C 41.015625 7.5625 40.074219 6.730469 38.957031 6.6875 L 34.546875 6.507813 L 31.894531 2.976563 C 31.472656 2.414063 30.839844 2.085938 30.171875 2.039063 Z M 12.480469 20.5 C 15.582031 20.5 15.878906 22.699219 15.878906 23.300781 L 14.378906 23.300781 C 14.378906 22.699219 14.082031 21.800781 12.480469 21.800781 C 10.980469 21.800781 10.878906 22.699219 10.878906 22.902344 C 10.878906 25 16.179688 23.601563 16.179688 26.902344 C 16.179688 29.5 13.078125 29.699219 12.679688 29.699219 C 9.28125 29.699219 8.980469 27.300781 8.980469 26.597656 L 10.480469 26.597656 L 10.480469 26.5 C 10.480469 26.800781 10.480469 28.402344 12.679688 28.402344 C 14.480469 28.402344 14.578125 27.199219 14.578125 27.097656 C 14.578125 24.898438 9.28125 26.398438 9.28125 23.097656 C 9.28125 22.5 9.679688 20.5 12.480469 20.5 Z M 20.480469 20.597656 L 22.078125 20.597656 L 25.480469 29.402344 L 23.878906 29.402344 L 22.980469 27.097656 L 19.480469 27.097656 L 18.679688 29.402344 L 17.078125 29.402344 Z M 26.878906 20.597656 L 28.378906 20.597656 L 28.378906 28 L 32.878906 28 L 32.878906 29.300781 L 26.878906 29.300781 Z M 34.578125 20.597656 L 40.878906 20.597656 L 40.878906 21.902344 L 36.078125 21.902344 L 36.078125 24.199219 L 40.480469 24.199219 L 40.480469 25.5 L 36.078125 25.5 L 36.078125 28.097656 L 40.980469 28.097656 L 40.980469 29.402344 L 34.578125 29.402344 Z M 21.28125 22.097656 L 19.878906 25.902344 L 22.578125 25.902344 Z "/>
</g>
</svg>
