<?xml version="1.0" encoding="UTF-8"?>
<svg xmlns="http://www.w3.org/2000/svg" xmlns:xlink="http://www.w3.org/1999/xlink" width="18pt" height="18pt" viewBox="0 0 48 48" version="1.1">
<g id="surface1">
<path style=" stroke:none;fill-rule:nonzero;fill:#dddddd;fill-opacity:1;" d="M 44 24 C 44 35.046875 35.046875 44 24 44 C 12.953125 44 4 35.046875 4 24 C 4 12.953125 12.953125 4 24 4 C 35.046875 4 44 12.953125 44 24 "/>
<path style=" stroke:none;fill-rule:nonzero;fill:#FFFFFF;fill-opacity:1;" d="M 40 24 C 40 32.835938 32.835938 40 24 40 C 15.164063 40 8 32.835938 8 24 C 8 15.164063 15.164063 8 24 8 C 32.835938 8 40 15.164063 40 24 "/>
<path style=" stroke:none;fill-rule:nonzero;fill:#9BCDC4;fill-opacity:1;" d="M 24 22.882813 L 24 4 C 16.527344 4 10.03125 8.105469 6.601563 14.175781 Z "/>
<path style=" stroke:none;fill-rule:nonzero;fill:#000000;fill-opacity:1;" d="M 14.167969 17.917969 L 13.269531 19.703125 L 23.550781 24.894531 L 24.449219 23.105469 Z "/>
<path style=" stroke:none;fill-rule:nonzero;fill:#000000;fill-opacity:1;" d="M 31.835938 22.667969 L 31.097656 20.449219 L 23.632813 22.890625 L 24.367188 25.109375 Z "/>
<path style=" stroke:none;fill-rule:nonzero;fill:#000000;fill-opacity:1;" d="M 24.894531 22.210938 C 25.882813 22.707031 26.28125 23.90625 25.789063 24.898438 C 25.292969 25.882813 24.09375 26.285156 23.105469 25.789063 C 22.117188 25.292969 21.71875 24.09375 22.210938 23.105469 C 22.707031 22.113281 23.90625 21.714844 24.894531 22.210938 "/>
<path style=" stroke:none;fill-rule:nonzero;fill:#8BC34A;fill-opacity:1;" d="M 24.449219 23.105469 C 24.941406 23.351563 25.140625 23.953125 24.894531 24.449219 C 24.644531 24.941406 24.046875 25.140625 23.550781 24.894531 C 23.058594 24.644531 22.859375 24.042969 23.105469 23.550781 C 23.355469 23.058594 23.953125 22.859375 24.449219 23.105469 "/>
</g>
</svg>
