<?xml version="1.0" encoding="UTF-8"?>
<svg xmlns="http://www.w3.org/2000/svg" xmlns:xlink="http://www.w3.org/1999/xlink" width="26pt" height="26pt" viewBox="0 0 26 26" version="1.1">
<g id="surface1">
<path style=" stroke:none;fill-rule:nonzero;fill:#85C808;fill-opacity:1;" d="M 13 0 C 12.488281 0 11.941406 0.179688 11.75 0.449219 C 11.621094 0.628906 11.25 10 11.25 10 L 9.511719 10 C 9.324219 10 9.152344 10.105469 9.0625 10.269531 C 8.972656 10.433594 8.980469 10.636719 9.085938 10.792969 C 10.453125 12.8125 12.589844 14.820313 12.683594 14.890625 C 12.777344 14.964844 12.886719 15 13 15 C 13.113281 15 13.226563 14.960938 13.316406 14.890625 C 13.410156 14.820313 15.546875 12.8125 16.914063 10.792969 C 17.019531 10.636719 17.027344 10.433594 16.9375 10.269531 C 16.851563 10.105469 16.675781 10 16.484375 10 L 14.75 10 C 14.75 10 14.457031 0.632813 14.328125 0.449219 C 14.136719 0.179688 13.519531 0 13 0 Z M 9.574219 2.507813 C 4.621094 3.984375 1.007813 8.574219 1.007813 14 C 1.007813 20.617188 6.382813 26 13 26 C 19.617188 26 25 20.617188 25 14 C 25 8.59375 21.40625 4.015625 16.484375 2.519531 C 16.511719 3.101563 16.542969 3.820313 16.574219 4.671875 C 20.328125 6.113281 23 9.746094 23 14 C 23 19.515625 18.515625 24 13 24 C 7.484375 24 3 19.515625 3 14 C 3 9.730469 5.695313 6.085938 9.46875 4.65625 C 9.507813 3.804688 9.542969 3.085938 9.574219 2.507813 Z "/>
</g>
</svg>
