<?xml version="1.0" encoding="UTF-8"?>
<svg xmlns="http://www.w3.org/2000/svg" xmlns:xlink="http://www.w3.org/1999/xlink" width="50pt" height="50pt" viewBox="0 0 50 50" version="1.1">
<g id="surface1">
<path style=" stroke:none;fill-rule:nonzero;fill:#85C808;fill-opacity:1;" d="M 23.4375 3.125 C 12.253906 3.125 3.125 12.253906 3.125 23.4375 C 3.125 34.617188 12.253906 43.75 23.4375 43.75 C 33.996094 43.75 42.722656 35.621094 43.652344 25.28125 L 43.957031 21.875 L 25 21.875 L 25 28.125 L 36.472656 28.125 C 34.519531 33.542969 29.554688 37.5 23.4375 37.5 C 15.636719 37.5 9.375 31.238281 9.375 23.4375 C 9.375 15.636719 15.636719 9.375 23.4375 9.375 C 27.160156 9.375 30.515625 10.816406 33.03125 13.160156 L 37.304688 8.59375 C 33.667969 5.199219 28.785156 3.125 23.4375 3.125 Z "/>
</g>
</svg>
