<?xml version="1.0" encoding="UTF-8"?>
<svg xmlns="http://www.w3.org/2000/svg" xmlns:xlink="http://www.w3.org/1999/xlink" width="30pt" height="30pt" viewBox="0 0 48 48" version="1.1">
<g id="surface1">
<path style="stroke:none;fill-rule:nonzero;fill: #75767a;fill-opacity:1;" d="M 9 40 L 9 8 C 9 5.800781 10.800781 4 13 4 L 29 4 C 31.199219 4 33 5.800781 33 8 L 33 40 C 33 42.199219 31.199219 44 29 44 L 13 44 C 10.800781 44 9 42.199219 9 40 Z "></path>
<path style="stroke:none;fill-rule:nonzero;fill: #f7e9e9;fill-opacity:1;" d="M 29 7 L 13 7 C 12.398438 7 12 7.398438 12 8 L 12 37 C 12 37.601563 12.398438 38 13 38 L 29 38 C 29.601563 38 30 37.601563 30 37 L 30 8 C 30 7.398438 29.601563 7 29 7 Z "></path>
<path style="stroke:none;fill-rule:nonzero;fill: #ffffff;fill-opacity:1;" d="M 18 40 L 24 40 L 24 42 L 18 42 Z "></path>
<path style="stroke:none;fill-rule:nonzero;fill: #f94242;fill-opacity:1;" d="M 42 11 L 24 11 C 22.894531 11 22 11.894531 22 13 L 22 31 L 28 27 L 42 27 C 43.105469 27 44 26.105469 44 25 L 44 13 C 44 11.894531 43.105469 11 42 11 Z "></path>
<path style="stroke:none;fill-rule:nonzero;fill:#FFFFFF;fill-opacity:1;" d="M 34 15 C 34 15.550781 33.550781 16 33 16 C 32.449219 16 32 15.550781 32 15 C 32 14.449219 32.449219 14 33 14 C 33.550781 14 34 14.449219 34 15 Z "></path>
<path style="stroke:none;fill-rule:nonzero;fill: #ffffff;fill-opacity:1;" d="M 34 23 C 34 23.550781 33.550781 24 33 24 C 32.449219 24 32 23.550781 32 23 C 32 22.449219 32.449219 22 33 22 C 33.550781 22 34 22.449219 34 23 Z "></path>
<path style=" stroke:none;fill-rule:nonzero;fill:#FFFFFF;fill-opacity:1;" d="M 36 21 L 36 18 C 36 16.34375 34.65625 15 33 15 C 31.34375 15 30 16.34375 30 18 L 30 21 C 30 21.550781 29.550781 22 29 22 L 29 23 L 37 23 L 37 22 C 36.449219 22 36 21.550781 36 21 Z "></path>
</g>
</svg>